# xmcd
#
# Track frame offsets:
#	150
#	12122
#	26283
#	46799
#	67437
#	80519
#	102478
#	111124
#	124015
#	139014
#	157317
#	171606
#	183968
#	192896
#	205671
#	217994
#	230490
#	242494
#
# Disc length: 3439 seconds
#
# Revision: 1
# Processed by: cddbd v1.5.2PL0 Copyright (c) Steve Scherf et al.
# Submitted via: audiograbber 1.83.01
#
DISCID=fa0d6d12
DTITLE=Big Daddy "O" - What You Gotta go Through
DYEAR=1900
DGENRE=
TTITLE0=What You Got to go Through
TTITLE1=Heavenly Joy
TTITLE2=Angel
TTITLE3=Don't Worry 'bout it Baby
TTITLE4=Doin' His Job
TTITLE5=Sportin' Life
TTITLE6=Ain't Gonna Worry
TTITLE7=Sixteen Tons
TTITLE8=Underneath it All
TTITLE9=Down Here
TTITLE10=Attitude
TTITLE11=Gulf Coast at Dawn
TTITLE12=GGT Ragtime
TTITLE13=Got no Blues Today
TTITLE14=If Only We Had Time
TTITLE15=Veiux Carre Too
TTITLE16=Shake Rattle and Roll
TTITLE17=Mama Told me So
EXTD=
EXTT0=
EXTT1=
EXTT2=
EXTT3=
EXTT4=
EXTT5=
EXTT6=
EXTT7=
EXTT8=
EXTT9=
EXTT10=
EXTT11=
EXTT12=
EXTT13=
EXTT14=
EXTT15=
EXTT16=
EXTT17=
PLAYORDER=
